<?xml version="1.0" encoding="UTF-8"?>
<svg width="100px" height="100px" viewBox="0 0 100 100" version="1.1" xmlns="http://www.w3.org/2000/svg" xmlns:xlink="http://www.w3.org/1999/xlink">
    <g stroke="none" stroke-width="1" fill="none" fill-rule="evenodd">
        <g stroke="#FF0000" fill="#FFFFFF">
            <path d="M32.5,69.5 L32.5,62.5 L40,62.5 L40.5,62.5 L40.5,62 L40.5,58 L40.5,57.5 L40,57.5 L16.5,57.5 L16.5,38.5 L47.5,38.5 L47.5,69.5 L32.5,69.5 Z M23.5,46 L23.5,50 L23.5,50.5 L24,50.5 L40,50.5 L40.5,50.5 L40.5,50 L40.5,46 L40.5,45.5 L40,45.5 L24,45.5 L23.5,45.5 L23.5,46 Z M59.5,30.5 L59.5,38 L59.5,38.5 L60,38.5 L83.5,38.5 L83.5,57.5 L52.5,57.5 L52.5,30.5 L59.5,30.5 Z M59.5,46 L59.5,50 L59.5,50.5 L60,50.5 L76,50.5 L76.5,50.5 L76.5,50 L76.5,46 L76.5,45.5 L76,45.5 L60,45.5 L59.5,45.5 L59.5,46 Z"></path>
        </g>
    </g>
</svg>
