<?xml version="1.0" standalone="no"?>
<!DOCTYPE svg PUBLIC "-//W3C//DTD SVG 20010904//EN"
 "http://www.w3.org/TR/2001/REC-SVG-20010904/DTD/svg10.dtd">
<svg version="1.0" xmlns="http://www.w3.org/2000/svg"
 width="16.000000pt" height="16.000000pt" viewBox="0 0 16.000000 16.000000"
 preserveAspectRatio="xMidYMid meet">
<metadata>
Created by potrace 1.11, written by Peter Selinger 2001-2013
</metadata>
<g transform="translate(0.000000,16.000000) scale(0.001333,-0.001333)"
fill="#000000" stroke="none">
<path d="M6354 7076 c1 -1355 4 -2468 9 -2472 8 -9 151 -9 166 0 5 4 12 3 15
-2 2 -4 22 -6 43 -5 52 4 46 4 154 2 53 -1 101 1 107 5 6 3 13 3 16 -2 2 -4
22 -6 43 -5 51 4 45 4 154 2 53 -1 101 1 107 5 6 3 13 3 16 -2 2 -4 22 -6 43
-5 52 4 46 4 154 2 53 -1 101 1 107 5 6 3 13 3 16 -2 2 -4 22 -6 43 -5 52 4
40 4 210 2 83 -1 155 1 161 5 5 3 12 3 16 -1 8 -9 231 -7 245 1 6 4 11 3 11
-1 0 -10 53 -9 69 2 6 3 11 3 11 -2 0 -4 26 -7 57 -5 58 2 85 2 133 -2 14 -1
37 2 52 6 15 3 30 3 32 -1 3 -4 22 -5 43 -4 52 4 45 4 169 2 62 -1 116 1 122
4 5 4 12 4 16 0 8 -9 231 -7 245 1 6 4 11 3 11 -1 0 -10 53 -9 69 2 6 3 11 3
11 -2 0 -4 26 -7 57 -5 58 2 85 2 133 -2 14 -1 37 2 52 6 15 3 30 3 32 -1 3
-4 22 -5 43 -4 52 4 45 4 169 2 62 -1 116 1 122 4 5 4 12 4 16 0 8 -9 231 -7
245 1 6 4 11 3 11 -1 0 -10 53 -9 69 2 6 3 11 3 11 -2 0 -4 26 -7 57 -5 58 2
85 2 133 -2 14 -1 37 2 52 6 15 3 30 3 32 -1 3 -4 22 -5 43 -4 52 4 45 4 169
2 62 -1 116 1 122 4 5 4 12 4 16 0 8 -9 231 -7 245 1 6 4 11 3 11 -1 0 -10 53
-9 69 2 6 3 11 3 11 -2 0 -4 26 -7 57 -5 58 2 85 2 133 -2 14 -1 37 2 52 6 15
3 30 3 32 -1 3 -4 22 -5 43 -4 52 4 45 4 169 2 62 -1 116 1 122 4 5 4 12 4 16
0 3 -3 54 -6 113 -6 l108 0 3 1766 2 1766 -2111 0 c-1161 0 -2114 2 -2117 6
-4 4 -7 320 -7 703 l0 697 -706 3 -706 2 1 -2464z m4227 -365 c4 0 7 -158 7
-351 l0 -350 -1412 3 -1411 2 -1 345 c0 190 1 347 2 350 2 5 2795 6 2815 1z"/>
<path d="M0 6365 c0 -1674 1 -1765 18 -1766 65 -3 152 0 161 5 6 4 11 3 11 -1
0 -10 53 -9 69 2 6 3 11 3 11 -2 0 -4 26 -7 57 -5 58 2 85 2 133 -2 14 -1 37
2 52 6 15 3 30 3 32 -1 3 -4 22 -5 43 -4 52 4 45 4 169 2 62 -1 116 1 122 4 5
4 12 4 16 0 8 -9 231 -7 245 1 6 4 11 3 11 -1 0 -10 53 -9 69 2 6 3 11 3 11
-2 0 -4 26 -7 57 -5 58 2 85 2 133 -2 14 -1 37 2 52 6 15 3 30 3 32 -1 3 -4
22 -5 43 -4 52 4 45 4 169 2 62 -1 116 1 122 4 5 4 12 4 16 0 8 -9 231 -7 245
1 6 4 11 3 11 -1 0 -10 53 -9 69 2 6 3 11 3 11 -2 0 -4 26 -7 57 -5 58 2 85 2
133 -2 14 -1 37 2 52 6 15 3 30 3 32 -1 3 -4 22 -5 43 -4 48 4 42 4 139 2 45
-1 87 1 93 5 6 4 11 3 11 -1 0 -10 53 -9 69 2 6 3 11 3 11 -2 0 -4 26 -7 57
-5 58 2 85 2 133 -2 14 -1 37 2 52 6 15 3 30 3 32 -1 3 -4 22 -5 43 -4 52 4
45 4 169 2 62 -1 116 1 122 4 5 4 12 4 16 0 8 -9 231 -7 245 1 6 4 11 3 11 -1
0 -10 53 -9 69 2 6 3 11 3 11 -2 0 -4 26 -7 57 -5 58 2 85 2 133 -2 14 -1 37
2 52 6 15 3 30 3 32 -1 5 -7 57 -6 93 3 13 2 25 1 28 -4 3 -4 14 -6 25 -3 13
3 20 0 21 -8 3 -35 5 -675 2 -685 -3 -8 -201 -11 -691 -12 -378 0 -694 -1
-702 -1 -14 -1 -16 -77 -14 -698 0 -384 2 -701 3 -705 0 -3 634 -5 1409 -5
l1407 2 1 2822 1 2822 -2824 0 -2823 0 0 -1764z m4230 344 c3 -4 5 -162 5
-351 l0 -343 -1412 -2 -1412 -3 1 348 c0 191 2 349 3 352 5 9 2809 7 2815 -1z"/>
</g>
</svg>
